<?xml version="1.0" encoding="UTF-8" standalone="no"?>
<!-- Created with Inkscape (http://www.inkscape.org/) -->

<svg
   xmlns:dc="http://purl.org/dc/elements/1.1/"
   xmlns:cc="http://creativecommons.org/ns#"
   xmlns:rdf="http://www.w3.org/1999/02/22-rdf-syntax-ns#"
   xmlns:svg="http://www.w3.org/2000/svg"
   xmlns="http://www.w3.org/2000/svg"
   xmlns:sodipodi="http://sodipodi.sourceforge.net/DTD/sodipodi-0.dtd"
   xmlns:inkscape="http://www.inkscape.org/namespaces/inkscape"
   width="1000"
   height="1000"
   id="svg3332"
   version="1.1"
   inkscape:version="0.48.4 r9939"
   sodipodi:docname="vorderseite_mk.svg">
  <defs
     id="defs3334" />
  <sodipodi:namedview
     id="base"
     pagecolor="#ffffff"
     bordercolor="#666666"
     borderopacity="1.0"
     inkscape:pageopacity="0.0"
     inkscape:pageshadow="2"
     inkscape:zoom="0.49921739"
     inkscape:cx="217.4084"
     inkscape:cy="656.39703"
     inkscape:document-units="px"
     inkscape:current-layer="layer1"
     showgrid="false"
     inkscape:window-width="1598"
     inkscape:window-height="879"
     inkscape:window-x="0"
     inkscape:window-y="0"
     inkscape:window-maximized="0"
     showguides="true"
     inkscape:guide-bbox="true" />
  <metadata
     id="metadata3337">
    <rdf:RDF>
      <cc:Work
         rdf:about="">
        <dc:format>image/svg+xml</dc:format>
        <dc:type
           rdf:resource="http://purl.org/dc/dcmitype/StillImage" />
        <dc:title></dc:title>
      </cc:Work>
    </rdf:RDF>
  </metadata>
  <g
     inkscape:label="Layer 1"
     inkscape:groupmode="layer"
     id="layer1"
     transform="translate(0,-52.362183)">
    <g
       id="g3034"
       transform="matrix(1.0479514,0,0,1.0479514,-23.975698,11.543431)">
      <g
         style="fill:#dc0067;fill-opacity:1;stroke:none"
         transform="matrix(0.73202212,0,0,0.73202212,207.19115,6.3631136)"
         id="g4190">
        <path
           style="fill:#dc0067;fill-opacity:1;fill-rule:evenodd;stroke:none"
           d="M 102.03125,333.9375 C 38.908033,404.58115 0.53125,497.80548 0.53125,600 c 0,102.19452 38.376783,195.41885 101.5,266.0625 L 148.75,824.53125 C 95.447356,764.92729 63.03125,686.25139 63.03125,600 c 0,-86.25139 32.416106,-164.92729 85.71875,-224.53125 L 102.03125,333.9375 z m 595.9375,0 -46.71875,41.53125 c 53.30264,59.60396 85.71875,138.27986 85.71875,224.53125 0,86.25139 -32.41611,164.92729 -85.71875,224.53125 l 46.71875,41.53125 c 63.12322,-70.64365 101.5,-163.86798 101.5,-266.0625 0,-102.19452 -38.37678,-195.41885 -101.5,-266.0625 z"
           transform="translate(0,52.362183)"
           id="path3340"
           inkscape:connector-curvature="0" />
        <path
           style="fill:#dc0067;fill-opacity:1;fill-rule:evenodd;stroke:none"
           d="m 176.71875,400.34375 c -47.41434,52.98962 -76.25,122.95805 -76.25,199.65625 0,76.6982 28.83566,146.66663 76.25,199.65625 l 46.625,-41.46875 C 185.73946,716.22284 162.875,660.78181 162.875,600 c 0,-60.78181 22.86446,-116.22284 60.46875,-158.1875 l -46.625,-41.46875 z m 446.5625,0 -46.625,41.46875 C 614.26054,483.77716 637.125,539.21819 637.125,600 c 0,60.78181 -22.86446,116.22284 -60.46875,158.1875 l 46.625,41.46875 c 47.41434,-52.98962 76.25,-122.95805 76.25,-199.65625 0,-76.6982 -28.83566,-146.66663 -76.25,-199.65625 z"
           transform="translate(0,52.362183)"
           id="path3344"
           inkscape:connector-curvature="0" />
        <path
           style="fill:#dc0067;fill-opacity:1;fill-rule:evenodd;stroke:none"
           d="M 251.34375,466.6875 C 219.61578,502.04041 200.3125,548.76056 200.3125,600 c 0,51.23944 19.30328,97.95959 51.03125,133.3125 l 46.625,-41.46875 c -21.91132,-24.32616 -35.25,-56.52684 -35.25,-91.84375 0,-35.31691 13.33868,-67.51759 35.25,-91.84375 l -46.625,-41.46875 z m 297.3125,0 -46.625,41.46875 c 21.91132,24.32616 35.25,56.52684 35.25,91.84375 0,35.31691 -13.33868,67.51759 -35.25,91.84375 l 46.625,41.46875 C 580.38422,697.95959 599.6875,651.23944 599.6875,600 c 0,-51.23944 -19.30328,-97.95959 -51.03125,-133.3125 z"
           transform="translate(0,52.362183)"
           id="path3348"
           inkscape:connector-curvature="0" />
      </g>
      <path
         sodipodi:type="arc"
         style="fill:#ffb400;fill-opacity:1;fill-rule:evenodd;stroke:none"
         id="path3350"
         sodipodi:cx="498.57144"
         sodipodi:cy="530"
         sodipodi:rx="312.85712"
         sodipodi:ry="312.85712"
         d="m 811.42856,530 c 0,172.78621 -140.0709,312.85712 -312.85712,312.85712 -172.78621,0 -312.85712,-140.07091 -312.85712,-312.85712 0,-172.78621 140.07091,-312.85712 312.85712,-312.85712 172.78622,0 312.85712,140.07091 312.85712,312.85712 z"
         transform="matrix(0.23360635,0,0,0.23360635,383.53055,360.0953)" />
      <path
         inkscape:connector-curvature="0"
         id="path4197"
         d="m 487.3057,516.98483 -18.7438,256.55263 62.8762,0 -18.74379,-256.55263 -25.38861,0 z"
         style="fill:#ffb400;fill-opacity:1;stroke:none" />
    </g>
    <rect
       style="fill:none;stroke:#000000;stroke-width:24.3992691;stroke-miterlimit:4;stroke-opacity:1;stroke-dasharray:none"
       id="rect4222"
       width="954.89075"
       height="954.89075"
       x="22.554626"
       y="74.916809"
       rx="51.698841"
       ry="51.698841" />
    <g
       transform="translate(-117.25098,24.362183)"
       style="font-size:40px;font-style:normal;font-weight:normal;line-height:125%;letter-spacing:0px;word-spacing:0px;fill:#000000;fill-opacity:1;stroke:none;font-family:Sans"
       id="flowRoot2999">
      <path
         d="m 392.79297,195.73074 0,-67.88086 -4.375,0 0,-12.7832 4.375,0 0,-7.65625 c -1e-5,-3.91918 1.18489,-6.97256 3.55469,-9.160157 2.36978,-2.232973 5.67381,-3.349509 9.91211,-3.349609 l 10.04882,0 0,12.646486 c -2.09638,9e-5 -3.5775,0.25074 -4.44336,0.75195 -0.8659,0.45582 -1.29885,1.27613 -1.29882,2.46094 l 0,4.30664 5.74218,0 0,12.7832 -5.74218,0 0,67.88086 -17.77344,0"
         style="font-size:140px;font-variant:normal;font-weight:bold;font-stretch:normal;text-align:center;text-anchor:middle;font-family:Swiss911 XCm BT;-inkscape-font-specification:Swiss911 XCm BT Bold"
         id="path6151" />
      <path
         d="m 419.52148,195.73074 0,-80.66406 17.5,0 0,6.76758 0.27344,0 c 1.50389,-2.82545 3.30401,-4.89901 5.40039,-6.22071 2.09633,-1.3671 4.53448,-2.05069 7.31446,-2.05078 3.87366,9e-5 6.76753,1.16219 8.68164,3.48633 1.95959,2.27872 2.9394,5.69669 2.93945,10.25391 l 0,31.17187 -17.91016,0 0,-25.29297 c -2e-5,-1.86842 -0.25067,-3.12168 -0.75195,-3.75976 -0.45576,-0.68353 -1.27607,-1.02533 -2.46094,-1.02539 -1.09377,6e-5 -1.91408,0.38743 -2.46094,1.16211 -0.50132,0.7748 -0.75197,1.98248 -0.75195,3.62304 l 0,62.54883 -17.77344,0"
         style="font-size:140px;font-variant:normal;font-weight:bold;font-stretch:normal;text-align:center;text-anchor:middle;font-family:Swiss911 XCm BT;-inkscape-font-specification:Swiss911 XCm BT Bold"
         id="path6153" />
      <path
         d="m 486.24023,130.65262 0,15.24414 6.42579,0 0,-15.24414 c -3e-5,-1.77728 -0.25068,-3.03053 -0.75196,-3.75977 -0.50133,-0.77467 -1.32164,-1.16204 -2.46094,-1.16211 -1.13934,7e-5 -1.95965,0.38744 -2.46093,1.16211 -0.50133,0.72924 -0.75198,1.98249 -0.75196,3.75977 m 0,48.80859 c -2e-5,1.77736 0.25063,3.0534 0.75196,3.82813 0.50128,0.72917 1.32159,1.09376 2.46093,1.09375 1.1393,1e-5 1.95961,-0.36458 2.46094,-1.09375 0.50128,-0.77473 0.75193,-2.05077 0.75196,-3.82813 l 0,-15.10742 17.77343,0 0,14.9707 c -4e-5,5.83335 -1.84574,10.36785 -5.53711,13.60352 -3.64587,3.1901 -8.7956,4.78515 -15.44922,4.78515 -7.51954,0 -12.89714,-1.73177 -16.13281,-5.19531 -3.23568,-3.46353 -4.85352,-9.38801 -4.85351,-17.77344 l 0,-38.62304 c -10e-6,-8.4765 1.59504,-14.42376 4.78515,-17.8418 3.1901,-3.41789 8.54491,-5.12687 16.06446,-5.12695 6.60804,8e-5 11.78056,1.54956 15.51757,4.64843 3.73694,3.05346 5.60543,7.29174 5.60547,12.71485 l 0,27.41211 -24.19922,0 0,21.5332"
         style="font-size:140px;font-variant:normal;font-weight:bold;font-stretch:normal;text-align:center;text-anchor:middle;font-family:Swiss911 XCm BT;-inkscape-font-specification:Swiss911 XCm BT Bold"
         id="path6155" />
      <path
         d="m 516.04492,195.73074 0,-80.66406 17.77344,0 0,80.66406 -17.77344,0 m 0,-85.51758 0,-15.312496 17.77344,0 0,15.312496 -17.77344,0"
         style="font-size:140px;font-variant:normal;font-weight:bold;font-stretch:normal;text-align:center;text-anchor:middle;font-family:Swiss911 XCm BT;-inkscape-font-specification:Swiss911 XCm BT Bold"
         id="path6157" />
      <path
         d="m 557.33398,130.65262 0,15.24414 6.42579,0 0,-15.24414 c -3e-5,-1.77728 -0.25068,-3.03053 -0.75196,-3.75977 -0.50133,-0.77467 -1.32164,-1.16204 -2.46094,-1.16211 -1.13934,7e-5 -1.95965,0.38744 -2.46093,1.16211 -0.50133,0.72924 -0.75198,1.98249 -0.75196,3.75977 m 0,48.80859 c -2e-5,1.77736 0.25063,3.0534 0.75196,3.82813 0.50128,0.72917 1.32159,1.09376 2.46093,1.09375 1.1393,1e-5 1.95961,-0.36458 2.46094,-1.09375 0.50128,-0.77473 0.75193,-2.05077 0.75196,-3.82813 l 0,-15.10742 17.77343,0 0,14.9707 c -4e-5,5.83335 -1.84574,10.36785 -5.53711,13.60352 -3.64587,3.1901 -8.7956,4.78515 -15.44922,4.78515 -7.51954,0 -12.89714,-1.73177 -16.13281,-5.19531 -3.23568,-3.46353 -4.85352,-9.38801 -4.85351,-17.77344 l 0,-38.62304 c -1e-5,-8.4765 1.59504,-14.42376 4.78515,-17.8418 3.1901,-3.41789 8.54491,-5.12687 16.06446,-5.12695 6.60804,8e-5 11.78056,1.54956 15.51757,4.64843 3.73694,3.05346 5.60543,7.29174 5.60547,12.71485 l 0,27.41211 -24.19922,0 0,21.5332"
         style="font-size:140px;font-variant:normal;font-weight:bold;font-stretch:normal;text-align:center;text-anchor:middle;font-family:Swiss911 XCm BT;-inkscape-font-specification:Swiss911 XCm BT Bold"
         id="path6159" />
      <path
         d="m 628.70117,179.05105 c -4e-5,6.01564 -1.80017,10.64129 -5.40039,13.87696 -3.60029,3.1901 -8.7956,4.78515 -15.58594,4.78515 -6.65366,0 -11.84897,-1.61784 -15.58593,-4.85351 -3.69141,-3.23567 -5.53712,-7.74739 -5.53711,-13.53516 l 0,-14.9707 17.91015,0 0,15.10742 c -2e-5,1.77736 0.25063,3.0534 0.75196,3.82813 0.50128,0.72917 1.32159,1.09376 2.46093,1.09375 1.1393,1e-5 1.95961,-0.36458 2.46094,-1.09375 0.50128,-0.77473 0.75193,-2.05077 0.75195,-3.82813 l 0,-7.24609 c -2e-5,-3.28123 -2.96226,-7.29164 -8.88671,-12.03125 -1.27606,-1.00257 -2.27867,-1.8001 -3.00782,-2.39258 -10e-6,4e-5 -0.0456,-0.0455 -0.13672,-0.13672 -8.20313,-6.79032 -12.30469,-13.60346 -12.30468,-20.43945 l 0,-7.17774 c -1e-5,-5.33196 1.8457,-9.47909 5.53711,-12.4414 3.69139,-2.96216 8.84113,-4.44328 15.44921,-4.44336 6.69919,8e-5 11.8945,1.54956 15.58594,4.64843 3.69137,3.09904 5.53707,7.47403 5.53711,13.125 l 0,12.30469 -17.77344,0 0,-12.57812 c -2e-5,-1.77728 -0.25067,-3.03053 -0.75195,-3.75977 -0.50133,-0.77467 -1.32164,-1.16204 -2.46094,-1.16211 -1.13934,7e-5 -1.95965,0.38744 -2.46093,1.16211 -0.50133,0.72924 -0.75198,1.98249 -0.75196,3.75977 l 0,4.30664 c -2e-5,3.64589 2.84829,7.6563 8.54492,12.03125 1.32159,1.00265 2.34698,1.80017 3.07618,2.39258 5.60543,4.51176 9.09175,8.04365 10.45898,10.5957 1.41272,2.50654 2.1191,5.78779 2.11914,9.84375 l 0,9.22851"
         style="font-size:140px;font-variant:normal;font-weight:bold;font-stretch:normal;text-align:center;text-anchor:middle;font-family:Swiss911 XCm BT;-inkscape-font-specification:Swiss911 XCm BT Bold"
         id="path6161" />
      <path
         d="m 667.39258,195.73074 -11.00586,-80.66406 18.04687,0 3.34961,41.76758 c 0.18227,2.64326 0.31899,5.55993 0.41016,8.75 0.0911,3.19013 0.1367,6.56252 0.13672,10.11718 l 0.68359,0 c 0.18227,-6.69919 0.66079,-13.33004 1.43555,-19.89257 0.0456,-0.50126 0.0911,-0.86585 0.13672,-1.09375 l 4.44336,-39.64844 18.66211,0 3.62304,41.76758 c 0.0455,0.41019 0.13667,2.68884 0.27344,6.83593 0.18224,4.14717 0.36453,8.15758 0.54688,12.03125 l 0.75195,0 c 0.27338,-5.97002 0.70633,-12.12236 1.29883,-18.45703 0.13666,-1.276 0.20502,-2.07352 0.20507,-2.39257 l 3.62305,-39.78516 17.22656,0 -12.03125,80.66406 -20.57617,0 -3.34961,-36.98242 c -0.0912,-1.13928 -0.20511,-3.41793 -0.34179,-6.83594 -0.13676,-3.41792 -0.27348,-7.33719 -0.41016,-11.75781 l -0.68359,0 c -0.2279,5.9701 -0.68363,11.66671 -1.36719,17.08984 l 0,0.27344 -4.78516,38.21289 -20.30273,0"
         style="font-size:140px;font-variant:normal;font-weight:bold;font-stretch:normal;text-align:center;text-anchor:middle;font-family:Swiss911 XCm BT;-inkscape-font-specification:Swiss911 XCm BT Bold"
         id="path6163" />
      <path
         d="m 732.60742,195.73074 0,-100.830076 17.77344,0 0,100.830076 -17.77344,0"
         style="font-size:140px;font-variant:normal;font-weight:bold;font-stretch:normal;text-align:center;text-anchor:middle;font-family:Swiss911 XCm BT;-inkscape-font-specification:Swiss911 XCm BT Bold"
         id="path6165" />
      <path
         d="m 780.45898,177.54715 0,-21.39649 c -0.27346,0.18233 -0.63804,0.45577 -1.09375,0.82032 -3.55471,2.73441 -5.33205,5.14977 -5.33203,7.24609 l 0,13.33008 c -2e-5,1.82293 0.22785,3.07618 0.6836,3.75976 0.50128,0.63804 1.34438,0.95705 2.52929,0.95703 1.09373,2e-5 1.89125,-0.36456 2.39258,-1.09375 0.54685,-0.77472 0.82029,-1.9824 0.82031,-3.62304 m -24.33593,-45.9375 c -1e-5,-6.1067 1.75455,-10.70956 5.26367,-13.8086 3.55467,-3.09887 8.79555,-4.64835 15.72265,-4.64843 7.56508,8e-5 12.94268,1.73185 16.13282,5.19531 3.23563,3.41804 4.85347,9.34252 4.85351,17.77344 l 0,49.08203 c -4e-5,2.14193 0.0911,4.05599 0.27344,5.74219 0.22782,1.64062 0.56962,3.23567 1.02539,4.78515 l -18.04687,0 c -0.2279,-0.95703 -0.41019,-1.91406 -0.54688,-2.87109 -0.13674,-1.0026 -0.2051,-1.91406 -0.20508,-2.73438 l 0,-1.23047 -0.27343,0 c -1.27607,2.64324 -3.00784,4.67123 -5.19532,6.08399 -2.14194,1.41276 -4.64845,2.11914 -7.51953,2.11914 -3.78256,0 -6.65365,-1.13932 -8.61328,-3.41797 -1.91407,-2.27864 -2.8711,-5.65103 -2.87109,-10.11719 l 0,-17.08984 c -1e-5,-4.23825 0.75195,-7.679 2.25586,-10.32227 1.54947,-2.68876 4.0104,-4.94461 7.38281,-6.76757 1.09374,-0.59241 2.64321,-1.38993 4.64844,-2.39258 6.69919,-3.41792 10.0488,-6.67638 10.04882,-9.77539 l 0,-5.74219 c -2e-5,-1.73171 -0.27346,-2.98496 -0.82031,-3.75977 -0.50133,-0.77467 -1.34442,-1.16204 -2.5293,-1.16211 -1.09377,7e-5 -1.89129,0.38744 -2.39257,1.16211 -0.45575,0.77481 -0.68362,2.02806 -0.6836,3.75977 l 0,11.75781 -17.91015,0 0,-11.62109"
         style="font-size:140px;font-variant:normal;font-weight:bold;font-stretch:normal;text-align:center;text-anchor:middle;font-family:Swiss911 XCm BT;-inkscape-font-specification:Swiss911 XCm BT Bold"
         id="path6167" />
      <path
         d="m 803.97461,195.73074 0,-80.66406 17.5,0 0,6.76758 0.27344,0 c 1.50388,-2.82545 3.30401,-4.89901 5.40039,-6.22071 2.09632,-1.3671 4.53447,-2.05069 7.31445,-2.05078 3.87366,9e-5 6.76754,1.16219 8.68164,3.48633 1.95959,2.27872 2.93941,5.69669 2.93945,10.25391 l 0,68.42773 -17.91015,0 0,-62.54883 c -3e-5,-1.86842 -0.25068,-3.12168 -0.75196,-3.75976 -0.45575,-0.68353 -1.27606,-1.02533 -2.46093,-1.02539 -1.09378,6e-5 -1.91409,0.38743 -2.46094,1.16211 -0.50132,0.7748 -0.75197,1.98248 -0.75195,3.62304 l 0,62.54883 -17.77344,0"
         style="font-size:140px;font-variant:normal;font-weight:bold;font-stretch:normal;text-align:center;text-anchor:middle;font-family:Swiss911 XCm BT;-inkscape-font-specification:Swiss911 XCm BT Bold"
         id="path6169" />
    </g>
    <g
       transform="translate(-117.0459,824.36218)"
       style="font-size:40px;font-style:normal;font-weight:normal;line-height:125%;letter-spacing:0px;word-spacing:0px;fill:#000000;fill-opacity:1;stroke:none;font-family:Sans"
       id="flowRoot3007">
      <path
         d="m 327.09961,155.95946 -7.86133,-57.617189 12.89063,0 2.39257,29.833989 c 0.1302,1.88804 0.22785,3.97137 0.29297,6.25 0.0651,2.27866 0.0976,4.68751 0.0977,7.22656 l 0.48828,0 c 0.13019,-4.78514 0.47199,-9.52146 1.02539,-14.20899 0.0325,-0.35804 0.0651,-0.61846 0.0977,-0.78125 l 3.17383,-28.320309 13.33007,0 2.58789,29.833989 c 0.0325,0.29299 0.0976,1.92059 0.19532,4.88281 0.13017,2.96226 0.26038,5.82684 0.39062,8.59375 l 0.53711,0 c 0.19528,-4.26431 0.50452,-8.65883 0.92774,-13.1836 0.0976,-0.91143 0.14644,-1.48109 0.14648,-1.70898 l 2.58789,-28.417969 12.30469,0 -8.59375,57.617189 -14.69727,0 -2.39258,-26.41602 c -0.0651,-0.81377 -0.14651,-2.44137 -0.24414,-4.88281 -0.0977,-2.44137 -0.19534,-5.24085 -0.29297,-8.39844 l -0.48828,0 c -0.16278,4.26436 -0.4883,8.33337 -0.97656,12.20703 l 0,0.19532 -3.41797,27.29492 -14.50195,0"
         style="font-size:100px;font-variant:normal;font-weight:bold;font-stretch:normal;text-align:center;text-anchor:middle;font-family:Swiss911 XCm BT;-inkscape-font-specification:Swiss911 XCm BT Bold"
         id="path6114" />
      <path
         d="m 378.66211,155.95946 -7.86133,-57.617189 12.89063,0 2.39257,29.833989 c 0.1302,1.88804 0.22785,3.97137 0.29297,6.25 0.0651,2.27866 0.0976,4.68751 0.0977,7.22656 l 0.48828,0 c 0.13019,-4.78514 0.47199,-9.52146 1.02539,-14.20899 0.0325,-0.35804 0.0651,-0.61846 0.0977,-0.78125 l 3.17383,-28.320309 13.33007,0 2.58789,29.833989 c 0.0325,0.29299 0.0976,1.92059 0.19532,4.88281 0.13017,2.96226 0.26038,5.82684 0.39062,8.59375 l 0.53711,0 c 0.19528,-4.26431 0.50452,-8.65883 0.92774,-13.1836 0.0976,-0.91143 0.14644,-1.48109 0.14648,-1.70898 l 2.58789,-28.417969 12.30469,0 -8.59375,57.617189 -14.69727,0 -2.39258,-26.41602 c -0.0651,-0.81377 -0.14651,-2.44137 -0.24414,-4.88281 -0.0977,-2.44137 -0.19534,-5.24085 -0.29297,-8.39844 l -0.48828,0 c -0.16278,4.26436 -0.4883,8.33337 -0.97656,12.20703 l 0,0.19532 -3.41797,27.29492 -14.50195,0"
         style="font-size:100px;font-variant:normal;font-weight:bold;font-stretch:normal;text-align:center;text-anchor:middle;font-family:Swiss911 XCm BT;-inkscape-font-specification:Swiss911 XCm BT Bold"
         id="path6116" />
      <path
         d="m 430.22461,155.95946 -7.86133,-57.617189 12.89063,0 2.39257,29.833989 c 0.1302,1.88804 0.22785,3.97137 0.29297,6.25 0.0651,2.27866 0.0976,4.68751 0.0977,7.22656 l 0.48828,0 c 0.13019,-4.78514 0.47199,-9.52146 1.02539,-14.20899 0.0325,-0.35804 0.0651,-0.61846 0.0977,-0.78125 l 3.17383,-28.320309 13.33007,0 2.58789,29.833989 c 0.0325,0.29299 0.0976,1.92059 0.19532,4.88281 0.13017,2.96226 0.26038,5.82684 0.39062,8.59375 l 0.53711,0 c 0.19528,-4.26431 0.50452,-8.65883 0.92774,-13.1836 0.0976,-0.91143 0.14644,-1.48109 0.14648,-1.70898 l 2.58789,-28.417969 12.30469,0 -8.59375,57.617189 -14.69727,0 -2.39258,-26.41602 c -0.0651,-0.81377 -0.14651,-2.44137 -0.24414,-4.88281 -0.0977,-2.44137 -0.19534,-5.24085 -0.29297,-8.39844 l -0.48828,0 c -0.16278,4.26436 -0.4883,8.33337 -0.97656,12.20703 l 0,0.19532 -3.41797,27.29492 -14.50195,0"
         style="font-size:100px;font-variant:normal;font-weight:bold;font-stretch:normal;text-align:center;text-anchor:middle;font-family:Swiss911 XCm BT;-inkscape-font-specification:Swiss911 XCm BT Bold"
         id="path6118" />
      <path
         d="m 475.92773,155.95946 0,-14.69727 13.23243,0 0,14.69727 -13.23243,0"
         style="font-size:100px;font-variant:normal;font-weight:bold;font-stretch:normal;text-align:center;text-anchor:middle;font-family:Swiss911 XCm BT;-inkscape-font-specification:Swiss911 XCm BT Bold"
         id="path6120" />
      <path
         d="m 496.19141,155.95946 0,-48.48633 -3.125,0 0,-9.130859 3.125,0 0,-5.46875 c -1e-5,-2.799413 0.84635,-4.980401 2.53906,-6.542969 1.6927,-1.594981 4.05272,-2.392506 7.08008,-2.392578 l 7.17773,0 0,9.033203 c -1.49741,6.3e-5 -2.55536,0.179099 -3.17383,0.53711 -0.6185,0.325582 -0.92775,0.911519 -0.92773,1.757812 l 0,3.076172 4.10156,0 0,9.130859 -4.10156,0 0,48.48633 -12.69531,0"
         style="font-size:100px;font-variant:normal;font-weight:bold;font-stretch:normal;text-align:center;text-anchor:middle;font-family:Swiss911 XCm BT;-inkscape-font-specification:Swiss911 XCm BT Bold"
         id="path6122" />
      <path
         d="m 515.2832,155.95946 0,-57.617189 12.5,0 0,4.833989 0.19532,0 c 1.0742,-2.01818 2.36,-3.499297 3.85742,-4.443364 1.49737,-0.976504 3.23891,-1.464785 5.22461,-1.464844 2.7669,5.9e-5 4.83395,0.830136 6.20117,2.490235 1.39971,1.627663 2.09958,4.069063 2.09961,7.324223 l 0,22.26562 -12.79297,0 0,-18.06641 c -2e-5,-1.33459 -0.17906,-2.22977 -0.53711,-2.68554 -0.32554,-0.48824 -0.91148,-0.73238 -1.75781,-0.73242 -0.78127,4e-5 -1.36721,0.27674 -1.75782,0.83007 -0.35808,0.55344 -0.53712,1.41606 -0.5371,2.58789 l 0,44.67774 -12.69532,0"
         style="font-size:100px;font-variant:normal;font-weight:bold;font-stretch:normal;text-align:center;text-anchor:middle;font-family:Swiss911 XCm BT;-inkscape-font-specification:Swiss911 XCm BT Bold"
         id="path6124" />
      <path
         d="m 562.93945,109.47508 0,10.88868 4.58985,0 0,-10.88868 c -2e-5,-1.26948 -0.17906,-2.16466 -0.53711,-2.68554 -0.35809,-0.55334 -0.94403,-0.83003 -1.75782,-0.83008 -0.81381,5e-5 -1.39975,0.27674 -1.75781,0.83008 -0.35809,0.52088 -0.53712,1.41606 -0.53711,2.68554 m 0,34.86328 c -10e-6,1.26955 0.17902,2.181 0.53711,2.73438 0.35806,0.52084 0.944,0.78126 1.75781,0.78125 0.81379,1e-5 1.39973,-0.26041 1.75782,-0.78125 0.35805,-0.55338 0.53709,-1.46483 0.53711,-2.73438 l 0,-10.79101 12.69531,0 0,10.69336 c -3e-5,4.16667 -1.31839,7.4056 -3.95508,9.7168 -2.60419,2.27864 -6.28257,3.41796 -11.03516,3.41796 -5.3711,0 -9.21224,-1.23698 -11.52343,-3.71093 -2.3112,-2.47396 -3.4668,-6.70572 -3.4668,-12.69532 l 0,-27.58789 c 0,-6.05464 1.13932,-10.30268 3.41797,-12.74414 2.27864,-2.441346 6.1035,-3.662048 11.47461,-3.662107 4.72003,5.9e-5 8.41469,1.106829 11.08398,3.320317 2.66924,2.18104 4.00388,5.20838 4.00391,9.08203 l 0,19.58008 -17.28516,0 0,15.38085"
         style="font-size:100px;font-variant:normal;font-weight:bold;font-stretch:normal;text-align:center;text-anchor:middle;font-family:Swiss911 XCm BT;-inkscape-font-specification:Swiss911 XCm BT Bold"
         id="path6126" />
      <path
         d="m 584.22852,155.95946 0,-57.617189 12.69531,0 0,57.617189 -12.69531,0 m 0,-61.083986 0,-10.9375 12.69531,0 0,10.9375 -12.69531,0"
         style="font-size:100px;font-variant:normal;font-weight:bold;font-stretch:normal;text-align:center;text-anchor:middle;font-family:Swiss911 XCm BT;-inkscape-font-specification:Swiss911 XCm BT Bold"
         id="path6128" />
      <path
         d="m 603.22266,155.95946 0,-48.48633 -3.125,0 0,-9.130859 3.125,0 0,-5.46875 c -10e-6,-2.799413 0.84635,-4.980401 2.53906,-6.542969 1.6927,-1.594981 4.05272,-2.392506 7.08008,-2.392578 l 7.17773,0 0,9.033203 c -1.49741,6.3e-5 -2.55536,0.179099 -3.17383,0.53711 -0.6185,0.325582 -0.92775,0.911519 -0.92773,1.757812 l 0,3.076172 4.10156,0 0,9.130859 -4.10156,0 0,48.48633 -12.69531,0"
         style="font-size:100px;font-variant:normal;font-weight:bold;font-stretch:normal;text-align:center;text-anchor:middle;font-family:Swiss911 XCm BT;-inkscape-font-specification:Swiss911 XCm BT Bold"
         id="path6130" />
      <path
         d="m 652.39258,98.342271 0,57.617189 -12.5,0 0,-4.78516 -0.29297,0 c -1.07424,1.98568 -2.34377,3.45052 -3.80859,4.39453 -1.43231,0.91146 -3.15757,1.36719 -5.17579,1.36719 -2.76693,0 -4.85026,-0.79753 -6.25,-2.39258 -1.36719,-1.6276 -2.05078,-4.05273 -2.05078,-7.27539 l 0,-48.925779 12.69532,0 0,44.726559 c -2e-5,1.26955 0.17902,2.14845 0.5371,2.63672 0.39061,0.48829 1.0091,0.73243 1.85547,0.73242 0.78124,1e-5 1.33462,-0.2604 1.66016,-0.78125 0.35805,-0.52082 0.53709,-1.38345 0.53711,-2.58789 l 0,-44.726559 12.79297,0"
         style="font-size:100px;font-variant:normal;font-weight:bold;font-stretch:normal;text-align:center;text-anchor:middle;font-family:Swiss911 XCm BT;-inkscape-font-specification:Swiss911 XCm BT Bold"
         id="path6132" />
      <path
         d="m 656.49414,155.95946 0,-57.617189 12.5,0 0,4.833989 0.19531,0 c 1.07421,-2.01818 2.36001,-3.499297 3.85742,-4.443364 1.49738,-0.976504 3.23892,-1.464785 5.22461,-1.464844 2.7669,5.9e-5 4.83396,0.830136 6.20118,2.490235 1.3997,1.627663 2.09957,4.069063 2.09961,7.324223 l 0,48.87695 -12.79297,0 0,-44.67774 c -2e-5,-1.33459 -0.17906,-2.22977 -0.53711,-2.68554 -0.32554,-0.48824 -0.91148,-0.73238 -1.75782,-0.73242 -0.78126,4e-5 -1.3672,0.27674 -1.75781,0.83007 -0.35809,0.55344 -0.53712,1.41606 -0.53711,2.58789 l 0,44.67774 -12.69531,0"
         style="font-size:100px;font-variant:normal;font-weight:bold;font-stretch:normal;text-align:center;text-anchor:middle;font-family:Swiss911 XCm BT;-inkscape-font-specification:Swiss911 XCm BT Bold"
         id="path6134" />
      <path
         d="m 690.67383,155.95946 0,-72.021486 12.69531,0 0,39.501956 0.19531,0 5.41992,-25.097659 12.98829,0 -6.29883,24.902339 6.29883,32.71485 -13.37891,0 -5.0293,-30.17578 -0.19531,0 0,30.17578 -12.69531,0"
         style="font-size:100px;font-variant:normal;font-weight:bold;font-stretch:normal;text-align:center;text-anchor:middle;font-family:Swiss911 XCm BT;-inkscape-font-specification:Swiss911 XCm BT Bold"
         id="path6136" />
      <path
         d="m 724.46289,132.08251 0,-9.81446 17.82227,0 0,9.81446 -17.82227,0"
         style="font-size:100px;font-variant:normal;font-weight:bold;font-stretch:normal;text-align:center;text-anchor:middle;font-family:Swiss911 XCm BT;-inkscape-font-specification:Swiss911 XCm BT Bold"
         id="path6138" />
      <path
         d="m 747.31445,155.95946 0,-57.617189 12.40235,0 0,4.833989 0.19531,0 c 1.0091,-1.98563 2.26235,-3.466745 3.75976,-4.443364 1.52993,-0.976504 3.30402,-1.464785 5.32227,-1.464844 1.92055,5.9e-5 3.53187,0.504616 4.83398,1.513672 1.30206,0.976619 2.26234,2.441456 2.88086,4.394536 l 0.19532,0 c 1.13929,-1.98563 2.45765,-3.466745 3.95507,-4.443364 1.52992,-0.976504 3.28773,-1.464785 5.27344,-1.464844 2.79944,5.9e-5 4.86649,0.797584 6.20117,2.392578 1.33459,1.59511 2.00191,4.06906 2.00196,7.42188 l 0,48.87695 -12.74414,0 0,-44.67774 c -4e-5,-1.33459 -0.17908,-2.22977 -0.53711,-2.68554 -0.32556,-0.48824 -0.9115,-0.73238 -1.75782,-0.73242 -0.78128,4e-5 -1.36722,0.27674 -1.75781,0.83007 -0.3581,0.55344 -0.53714,1.41606 -0.53711,2.58789 l 0,44.67774 -12.5,0 0,-44.67774 c -2e-5,-1.33459 -0.17905,-2.22977 -0.53711,-2.68554 -0.32554,-0.48824 -0.91147,-0.73238 -1.75781,-0.73242 -0.78126,4e-5 -1.3672,0.27674 -1.75781,0.83007 -0.35809,0.55344 -0.53713,1.41606 -0.53711,2.58789 l 0,44.67774 -12.59766,0"
         style="font-size:100px;font-variant:normal;font-weight:bold;font-stretch:normal;text-align:center;text-anchor:middle;font-family:Swiss911 XCm BT;-inkscape-font-specification:Swiss911 XCm BT Bold"
         id="path6140" />
      <path
         d="m 798.29102,155.95946 0,-72.021486 12.69531,0 0,39.501956 0.19531,0 5.41992,-25.097659 12.98828,0 -6.29882,24.902339 6.29882,32.71485 -13.3789,0 -5.0293,-30.17578 -0.19531,0 0,30.17578 -12.69531,0"
         style="font-size:100px;font-variant:normal;font-weight:bold;font-stretch:normal;text-align:center;text-anchor:middle;font-family:Swiss911 XCm BT;-inkscape-font-specification:Swiss911 XCm BT Bold"
         id="path6142" />
      <path
         d="m 832.08008,155.95946 0,-14.69727 13.23242,0 0,14.69727 -13.23242,0"
         style="font-size:100px;font-variant:normal;font-weight:bold;font-stretch:normal;text-align:center;text-anchor:middle;font-family:Swiss911 XCm BT;-inkscape-font-specification:Swiss911 XCm BT Bold"
         id="path6144" />
      <path
         d="m 880.0293,155.95946 -12.5,0 0,-4.98047 -0.19532,0 c -0.84637,2.11589 -2.03452,3.71094 -3.56445,4.78516 -1.49741,1.07421 -3.3366,1.61132 -5.51758,1.61132 -2.76693,0 -4.83399,-0.79752 -6.20117,-2.39257 -1.33464,-1.62761 -2.00195,-4.06901 -2.00195,-7.32422 l 0,-40.57617 c 0,-3.28771 0.68359,-5.74539 2.05078,-7.373052 1.36718,-1.627546 3.41796,-2.441347 6.15234,-2.441406 2.01822,5.9e-5 3.75975,0.48834 5.22461,1.464844 1.46483,0.976619 2.68553,2.457734 3.66211,4.443364 l 0.19531,0 0,-19.238286 12.69532,0 0,72.021486 M 862.74414,143.3618 c -10e-6,1.33465 0.16275,2.26238 0.48828,2.78321 0.35806,0.48829 0.96027,0.73243 1.80664,0.73242 0.78123,1e-5 1.3509,-0.29296 1.70899,-0.87891 0.3906,-0.58593 0.58592,-1.46483 0.58593,-2.63672 l 0,-32.08008 c -10e-6,-1.17183 -0.19533,-2.03445 -0.58593,-2.58789 -0.35809,-0.55333 -0.92776,-0.83003 -1.70899,-0.83007 -0.84637,4e-5 -1.44858,0.24418 -1.80664,0.73242 -0.32553,0.45577 -0.48829,1.35095 -0.48828,2.68554 l 0,32.08008"
         style="font-size:100px;font-variant:normal;font-weight:bold;font-stretch:normal;text-align:center;text-anchor:middle;font-family:Swiss911 XCm BT;-inkscape-font-specification:Swiss911 XCm BT Bold"
         id="path6146" />
      <path
         d="m 896.72852,109.47508 0,10.88868 4.58984,0 0,-10.88868 c -2e-5,-1.26948 -0.17906,-2.16466 -0.53711,-2.68554 -0.35809,-0.55334 -0.94403,-0.83003 -1.75781,-0.83008 -0.81382,5e-5 -1.39976,0.27674 -1.75782,0.83008 -0.35808,0.52088 -0.53712,1.41606 -0.5371,2.68554 m 0,34.86328 c -2e-5,1.26955 0.17902,2.181 0.5371,2.73438 0.35806,0.52084 0.944,0.78126 1.75782,0.78125 0.81378,1e-5 1.39972,-0.26041 1.75781,-0.78125 0.35805,-0.55338 0.53709,-1.46483 0.53711,-2.73438 l 0,-10.79101 12.69531,0 0,10.69336 c -3e-5,4.16667 -1.31839,7.4056 -3.95508,9.7168 -2.60419,2.27864 -6.28257,3.41796 -11.03515,3.41796 -5.37111,0 -9.21225,-1.23698 -11.52344,-3.71093 -2.3112,-2.47396 -3.4668,-6.70572 -3.4668,-12.69532 l 0,-27.58789 c 0,-6.05464 1.13932,-10.30268 3.41797,-12.74414 2.27864,-2.441346 6.10351,-3.662048 11.47461,-3.662107 4.72003,5.9e-5 8.41469,1.106829 11.08399,3.320317 2.66924,2.18104 4.00387,5.20838 4.0039,9.08203 l 0,19.58008 -17.28515,0 0,15.38085"
         style="font-size:100px;font-variant:normal;font-weight:bold;font-stretch:normal;text-align:center;text-anchor:middle;font-family:Swiss911 XCm BT;-inkscape-font-specification:Swiss911 XCm BT Bold"
         id="path6148" />
    </g>
  </g>
</svg>
